<svg width="18" height="18" viewBox="0 0 18 18" fill="none" xmlns="http://www.w3.org/2000/svg">
<path d="M16.8907 0.620758L15.4703 8.89405C15.457 8.97111 15.406 9.07984 15.3066 9.17924C15.2072 9.27869 15.0979 9.33035 15.0208 9.34358C15.0091 9.34556 14.9992 9.34392 14.9911 9.34427C14.9914 9.33612 14.9898 9.32615 14.9918 9.31458L16.1104 2.80699L16.3763 1.25536L0.974602 16.657C0.875617 16.7559 0.767562 16.8074 0.690792 16.8207C0.679762 16.8226 0.669698 16.8203 0.66179 16.8207C0.662197 16.8128 0.660604 16.8033 0.662481 16.7924C0.67568 16.7156 0.726409 16.607 0.825447 16.5079L16.2271 1.1062L14.6762 1.37275L8.16789 2.49072C8.15631 2.4927 8.14636 2.49106 8.1382 2.49141C8.13856 2.48326 8.13691 2.4733 8.13889 2.46172C8.15213 2.38461 8.20378 2.2753 8.30324 2.17584C8.35053 2.12858 8.40271 2.09021 8.45447 2.0619C8.5064 2.03351 8.55247 2.01839 8.58843 2.01218L16.8617 0.591756C16.8731 0.58979 16.8833 0.591455 16.8914 0.591065L16.8907 0.620758Z" fill="#535456" stroke="#535456"/>
</svg>
