<svg width="11" height="10" viewBox="0 0 11 10" fill="none" xmlns="http://www.w3.org/2000/svg">
<path fill-rule="evenodd" clip-rule="evenodd" d="M0.790827 9.71325C0.853951 9.77638 0.949957 9.80145 1.05772 9.78295C1.16549 9.76445 1.27619 9.7039 1.36548 9.61462L9.30546 1.67464L8.68421 5.29101C8.66569 5.39891 8.69079 5.49504 8.754 5.55824C8.8172 5.62144 8.91333 5.64655 9.02123 5.62803C9.12913 5.60951 9.23998 5.54888 9.32937 5.45949C9.41877 5.37009 9.47939 5.25925 9.49791 5.15135L10.287 0.554149C10.2962 0.50069 10.2948 0.449552 10.2829 0.403665C10.2709 0.357779 10.2486 0.318044 10.2173 0.286737C10.186 0.255431 10.1463 0.233168 10.1004 0.221223C10.0545 0.209278 10.0034 0.207886 9.94993 0.217127L5.35273 1.00617C5.2993 1.01534 5.24459 1.03494 5.19172 1.06386C5.13885 1.09278 5.08886 1.13044 5.04459 1.17471C4.9552 1.2641 4.89457 1.37494 4.87605 1.48285C4.85753 1.59075 4.88263 1.68688 4.94584 1.75008C5.00904 1.81329 5.10517 1.83839 5.21307 1.81987L8.82944 1.19862L0.889457 9.1386C0.800175 9.22788 0.739625 9.33859 0.721128 9.44635C0.702632 9.55412 0.727703 9.65013 0.790827 9.71325Z" fill="#2F2A27"/>
</svg>
