<svg width="13" height="13" viewBox="0 0 13 13" fill="none" xmlns="http://www.w3.org/2000/svg">
<path d="M6.86328 4.77344V9H6.13672V4.77344H6.86328ZM6.08203 3.65234C6.08203 3.53516 6.11719 3.4362 6.1875 3.35547C6.26042 3.27474 6.36719 3.23438 6.50781 3.23438C6.64583 3.23438 6.7513 3.27474 6.82422 3.35547C6.89974 3.4362 6.9375 3.53516 6.9375 3.65234C6.9375 3.76432 6.89974 3.86068 6.82422 3.94141C6.7513 4.01953 6.64583 4.05859 6.50781 4.05859C6.36719 4.05859 6.26042 4.01953 6.1875 3.94141C6.11719 3.86068 6.08203 3.76432 6.08203 3.65234Z" fill="#535456"/>
<circle cx="6.5" cy="6.5" r="6.25" stroke="#535456" stroke-width="0.5"/>
</svg>
