<svg width="45" height="42" viewBox="0 0 45 42" fill="none" xmlns="http://www.w3.org/2000/svg">
<path d="M20.4706 0.0302696C19.4107 0.0766106 18.896 0.134537 17.5297 0.366245C17.2356 0.412586 16.1389 0.650085 15.5997 0.777523C15.422 0.818073 14.5826 1.09612 13.8352 1.351C13.6391 1.42051 13.3756 1.52478 13.2531 1.5885C13.1306 1.65222 13.0019 1.70435 12.9651 1.70435C12.8977 1.70435 11.268 2.46319 11.2189 2.52112C11.2006 2.53849 11.0229 2.63697 10.8207 2.74703C10.6185 2.85709 10.3857 2.98453 10.2999 3.03666C9.7546 3.37843 9.3441 3.64489 9.31959 3.67386C9.30121 3.69123 9.11127 3.83026 8.8907 3.97508C8.67013 4.12569 8.43731 4.29367 8.36991 4.3516C8.30252 4.40953 8.01455 4.65282 7.73271 4.89032C5.7292 6.57019 4.15457 8.55128 2.94756 10.8741C2.71474 11.3318 2.51867 11.7373 2.51867 11.772C2.51867 11.8068 2.45128 11.9748 2.37163 12.1427C2.1388 12.6177 1.86922 13.3592 1.69766 13.9848C1.63639 14.1933 1.56287 14.4424 1.53223 14.5409C1.5016 14.6394 1.47709 14.7842 1.47709 14.8711C1.47709 14.9522 1.45258 15.0391 1.41582 15.0565C1.38519 15.0738 1.35455 15.1781 1.35455 15.2882C1.35455 15.3982 1.33005 15.5488 1.29941 15.6241C1.26265 15.7052 1.20138 16.0122 1.14624 16.3077C0.950174 17.4894 0.913413 18.1671 0.950174 19.6906C0.986936 21.3878 1.03595 21.9208 1.22589 22.7897C1.34843 23.3747 1.37906 23.508 1.53836 24.1509C1.64252 24.568 2.02852 25.7208 2.16331 26.0336C2.20007 26.1147 2.25522 26.2421 2.29198 26.3232C2.32261 26.4043 2.39001 26.5375 2.4329 26.6244C2.48191 26.7055 2.51867 26.8098 2.51867 26.8561C2.51867 26.9488 3.27842 28.3796 3.51737 28.7387C3.60927 28.8778 3.6828 28.9994 3.6828 29.011C3.6828 29.1384 4.74888 30.5808 5.39221 31.3281C5.8211 31.8204 7.46925 33.4192 7.87976 33.7378C8.93359 34.5604 10.4776 35.5915 11.3415 36.0491C11.7826 36.2866 13.2653 36.9759 13.6391 37.1207C13.878 37.2134 14.1783 37.3351 14.3131 37.3872C14.9074 37.6363 16.9783 38.2503 17.6216 38.3719C17.8238 38.4067 18.0873 38.4646 18.2037 38.4936C18.4487 38.5515 19.2881 38.679 20.0418 38.7658C20.3297 38.8006 20.7831 38.8585 21.0527 38.8933C21.3223 38.9222 21.9166 38.9512 22.3761 38.9512H23.2094L23.2523 39.2177C23.2707 39.3683 23.289 39.8896 23.289 40.3762V41.2683H23.9569C24.5083 41.2683 24.6308 41.2509 24.6615 41.1756C24.6799 41.1235 24.6982 40.6021 24.6982 40.0171C24.6982 39.2119 24.7166 38.9396 24.7779 38.9222C24.8453 38.8991 25.1639 38.8527 26.1687 38.7253C26.6282 38.6674 27.1797 38.5573 27.9149 38.3893C28.2519 38.3082 28.595 38.2329 28.6808 38.2155C28.9626 38.1634 30.1819 37.7695 30.2002 37.7232C30.2125 37.7 30.2738 37.6768 30.3289 37.6768C30.3902 37.6768 30.574 37.6131 30.7394 37.532C30.9048 37.4509 31.0887 37.3872 31.1438 37.3872C31.1989 37.3872 31.2663 37.364 31.2847 37.3293C31.3031 37.2945 31.3705 37.2713 31.4256 37.2713C31.5666 37.2655 33.8458 36.1707 33.9499 36.0607C33.9683 36.0433 34.0602 35.9854 34.1644 35.939C34.4891 35.7826 35.8003 34.9427 35.9718 34.7805C35.9902 34.7631 36.1679 34.6299 36.3762 34.4793C37.0012 34.0217 37.6874 33.4366 38.5084 32.6604C38.9924 32.2028 39.8992 31.2412 40.0646 31.0095C40.1198 30.9226 40.2607 30.743 40.371 30.604C40.4813 30.465 40.6222 30.2854 40.6773 30.2101C40.7325 30.1348 40.8121 30.0479 40.8428 30.0073C40.9714 29.8741 41.241 29.515 41.241 29.486C41.241 29.4686 41.3636 29.2717 41.5167 29.0457C41.6699 28.8198 41.7924 28.6113 41.7924 28.5823C41.7924 28.5476 41.8169 28.5244 41.8476 28.5244C41.8782 28.5244 41.9517 28.4086 42.0191 28.2637C42.0804 28.1189 42.1478 28.0031 42.1784 28.0031C42.2029 28.0031 42.2213 27.9625 42.2213 27.9162C42.2213 27.864 42.2887 27.7308 42.3622 27.6092C42.5461 27.3311 43.0301 26.3811 43.1771 26.0046C43.2384 25.8424 43.2997 25.7034 43.3181 25.686C43.3548 25.657 43.4835 25.35 43.6367 24.933C43.6734 24.8229 43.7347 24.6839 43.7592 24.6317C43.7898 24.5738 43.8143 24.4695 43.8143 24.3942C43.8143 24.3189 43.8388 24.2378 43.8633 24.2031C43.9062 24.1567 44.1023 23.6006 44.329 22.8534C44.3841 22.6854 44.427 22.4595 44.427 22.361C44.427 22.2567 44.4515 22.1525 44.4822 22.1177C44.5128 22.0888 44.5496 21.9324 44.568 21.7759C44.5802 21.6138 44.6415 21.2372 44.6966 20.936C44.8437 20.1424 45.0459 18.1324 44.9907 17.9818C44.9785 17.947 44.8314 17.9238 44.666 17.9238C44.3045 17.9238 44.3229 17.8891 44.28 18.9086C44.2555 19.6153 44.2432 19.7311 44.1207 20.5595C43.9062 22.0019 43.8021 22.5 43.5815 23.1083C43.5141 23.2994 43.3854 23.6875 43.2935 23.9772C43.2078 24.261 43.1036 24.5564 43.073 24.6259C42.9749 24.8576 42.9075 25.0141 42.7115 25.4833C42.399 26.2189 41.4432 27.9973 41.1552 28.3738C41.0817 28.4723 40.9653 28.6518 40.8979 28.7735C40.8366 28.8951 40.7386 29.04 40.6896 29.0921C40.6344 29.1442 40.5303 29.289 40.4506 29.4107C40.371 29.5323 40.2791 29.6598 40.2362 29.7003C40.1994 29.7351 40.1075 29.8625 40.034 29.9726C39.9605 30.0826 39.8502 30.2275 39.7828 30.297C39.7154 30.3607 39.5622 30.5403 39.4336 30.7025C39.311 30.8589 39.1885 30.9979 39.164 31.0153C39.1456 31.0326 38.9434 31.2354 38.729 31.4729C38.2143 32.0232 37.5342 32.672 36.8848 33.2165C36.6029 33.454 36.3578 33.6683 36.3395 33.6857C36.1189 33.9174 34.4646 35.018 33.5517 35.5335C31.346 36.7905 28.9381 37.6247 26.3525 38.0244C25.9665 38.0881 25.458 38.1634 25.2313 38.204C24.9188 38.2503 24.7901 38.2503 24.7411 38.204C24.6554 38.1229 24.6002 31.7567 24.6676 30.1232L24.7105 29.0515L25.1516 28.9936C26.279 28.8314 26.4812 28.7909 26.9958 28.6576C28.644 28.2348 29.8265 27.754 31.2234 26.943C32.6449 26.1205 34.3972 24.5333 35.255 23.2936C35.3775 23.1141 35.5797 22.8244 35.6961 22.6564C36.2108 21.915 37.1115 19.9397 37.3259 19.0824C37.6445 17.8022 37.7487 17.0607 37.7487 15.9891V15.1318L37.5771 15.0738L37.4055 15.0101L37.3259 13.7647C37.283 13.0812 37.2217 12.4555 37.1911 12.3802C37.1605 12.3049 37.136 12.1543 37.136 12.0443C37.136 11.9342 37.1115 11.8299 37.0747 11.8126C37.0441 11.7952 37.0134 11.7025 37.0134 11.6156C37.0134 11.5229 36.9705 11.3434 36.9215 11.2101C36.8725 11.0827 36.848 10.9726 36.8602 10.9726C36.8786 10.9726 36.8541 10.8741 36.8051 10.7525C36.7622 10.6366 36.6887 10.4223 36.6458 10.2775C36.4559 9.63451 35.788 8.20372 35.2917 7.38116C35.0712 7.01623 34.3298 5.95617 34.146 5.75343C33.037 4.49642 32.2712 3.74916 31.4685 3.14672C29.5263 1.68118 27.0081 0.557404 24.974 0.233013C24.8759 0.221428 24.5696 0.163502 24.3 0.117161C23.7118 0.00709915 21.9289 -0.0334511 20.4706 0.0302696ZM23.4116 0.713802C24.5634 0.841244 24.8821 0.904961 26.1013 1.25252C27.4431 1.63484 28.0681 1.90709 29.8326 2.89185C30.0348 3.00191 30.6781 3.47112 31.1867 3.87081C32.8716 5.19154 34.3727 7.02202 35.2427 8.80037C35.6165 9.57659 35.6655 9.68086 35.6655 9.72141C35.6655 9.73878 35.7145 9.86622 35.7819 10.0052C35.9718 10.4165 36.3517 11.8126 36.4375 12.415C36.5294 13.0985 36.6458 14.3555 36.6458 14.6568V15.0043L36.4191 15.0622L36.1863 15.1144L36.1434 16.1571C36.125 16.7305 36.076 17.2693 36.0392 17.3619L35.9718 17.5183L28.3009 17.5068L20.6238 17.4894L20.6054 9.07262C20.5932 0.806488 20.5932 0.655876 20.7096 0.61533C20.8505 0.568989 22.6702 0.632706 23.4116 0.713802ZM19.8825 0.847034C19.8947 0.92234 19.9008 4.69337 19.9008 9.23482L19.8886 17.4894H15.6916H11.4947L11.4456 17.2577C11.4211 17.1302 11.3966 16.5973 11.3844 16.0702L11.3721 15.1144H10.5756H9.77911L9.76073 15.8095C9.69334 18.2424 10.4408 20.7449 11.9113 22.9924C12.8487 24.4348 14.5398 26.0336 16.1266 26.9951C16.966 27.4991 18.314 28.1189 19.1533 28.3854C19.5271 28.5012 19.8457 28.6229 19.8702 28.6634C19.8947 28.6982 19.9192 30.8183 19.9192 33.3787C19.9192 37.1902 19.907 38.036 19.8396 38.0591C19.7906 38.0765 19.4842 38.036 19.1472 37.9665C18.8164 37.9027 18.3875 37.8216 18.2037 37.7869C16.917 37.5378 15.7529 37.196 14.3743 36.6631C10.5143 35.186 7.36509 32.8573 5.07361 29.793C4.74276 29.3586 4.4793 28.982 4.4793 28.9531C4.4793 28.9299 4.44254 28.8662 4.39352 28.8198C4.30774 28.7272 4.04429 28.2695 3.59702 27.4528C3.2968 26.9025 3.02108 26.2769 2.5922 25.1647C2.47579 24.8692 2.30423 24.2494 2.05915 23.2241C2.01014 22.9982 1.94887 22.7665 1.93049 22.7028C1.87534 22.5232 1.79569 21.9729 1.69154 20.965C1.55062 19.6732 1.59963 18.086 1.83246 16.4467C1.86922 16.2208 1.90598 16.0007 1.92436 15.9543C1.94274 15.908 2.00401 15.6589 2.05915 15.404C2.27972 14.4019 2.39613 13.9848 2.51867 13.6662C2.54931 13.6025 2.59832 13.4693 2.62896 13.3766C3.01496 12.2991 3.12524 12.0501 3.65216 11.0305C4.01365 10.3238 4.08717 10.1964 4.40578 9.70982C4.50993 9.54183 4.60184 9.38543 4.60184 9.35647C4.60184 9.3275 4.62022 9.29275 4.65085 9.28116C4.67536 9.26958 4.85304 9.03787 5.04911 8.75982C5.41672 8.24427 6.02329 7.49702 6.58084 6.88879C7.3896 6.0083 9.06226 4.5891 9.77911 4.17203C9.87714 4.1141 9.97517 4.04459 9.99356 4.02142C10.0303 3.97508 11.2741 3.22203 11.5866 3.05404C12.2115 2.72386 13.8352 1.99398 13.9454 1.99398C13.9577 1.99398 14.1292 1.92447 14.3192 1.84338C14.6133 1.71593 15.0605 1.57691 16.0286 1.30466C16.4943 1.17142 17.977 0.893375 18.5652 0.829659C18.8164 0.800694 19.0369 0.765938 19.0492 0.748562C19.0676 0.731182 19.2575 0.719597 19.4658 0.719597C19.8212 0.719597 19.8579 0.731182 19.8825 0.847034ZM34.918 18.1382L35.8493 18.1729V18.3177C35.8493 18.393 35.7635 18.7348 35.6594 19.0708C34.3666 23.2647 30.7027 26.4217 26.1074 27.3022C25.7888 27.3659 25.3416 27.4296 25.1149 27.4528L24.6982 27.4933L24.6921 27.0415C24.6921 26.7866 24.6799 25.3732 24.6615 23.8903C24.6492 22.4074 24.6554 20.5305 24.6737 19.7138L24.7166 18.2308L26.1626 18.1729C27.8965 18.1092 33.6191 18.0802 34.918 18.1382ZM23.2278 18.3409C23.2278 18.4162 23.2278 20.4552 23.2339 22.8766C23.2339 25.2979 23.24 27.3369 23.2339 27.4064C23.2278 27.5686 23.1175 27.5744 22.0943 27.4528C17.3275 26.8793 13.4369 23.8266 11.9297 19.4763C11.8071 19.1287 11.6478 18.4683 11.6478 18.3235C11.6478 18.2135 11.752 18.2135 17.4378 18.2135H23.2278V18.3409ZM21.7205 28.9531C22.0575 29.0052 22.4987 29.0457 22.7009 29.0457C22.9092 29.0457 23.1052 29.0689 23.1481 29.0921C23.2033 29.1268 23.2216 30.2159 23.2339 33.6973C23.2339 36.2113 23.2278 38.2677 23.2216 38.2793C23.2094 38.2851 22.6518 38.2793 21.984 38.2619C20.875 38.2271 20.7586 38.2155 20.679 38.1171C20.6054 38.0186 20.5932 37.2829 20.5932 33.4018V28.7967L20.8566 28.8314C20.9976 28.8488 21.3897 28.9067 21.7205 28.9531Z" fill="#2F2A27"/>
</svg>
